<svg xmlns="http://www.w3.org/2000/svg" viewBox="0 0 1280 720" preserveAspectRatio="xMidYMid slice">
  <defs>
    <linearGradient id="bg" x1="0" y1="0" x2="1" y2="1">
      <stop offset="0" stop-color="#0d0d18"/>
      <stop offset="1" stop-color="#0a0a12"/>
    </linearGradient>
    <radialGradient id="glow" cx="0.5" cy="0.5" r="0.5">
      <stop offset="0" stop-color="#7dd3fc" stop-opacity="0.2"/>
      <stop offset="1" stop-color="#7dd3fc" stop-opacity="0"/>
    </radialGradient>
  </defs>
  <rect width="1280" height="720" fill="url(#bg)"/>
  <circle cx="640" cy="340" r="380" fill="url(#glow)"/>
  <g stroke="#7dd3fc" stroke-width="1.5" fill="none" opacity="0.7">
    <circle cx="640" cy="340" r="70"/>
    <circle cx="640" cy="340" r="130" opacity="0.45"/>
    <circle cx="640" cy="340" r="200" opacity="0.25"/>
  </g>
  <g fill="#7dd3fc">
    <circle cx="440" cy="340" r="5"/>
    <circle cx="840" cy="340" r="5"/>
    <circle cx="640" cy="140" r="5"/>
    <circle cx="640" cy="540" r="5"/>
    <circle cx="520" cy="220" r="4" opacity="0.7"/>
    <circle cx="760" cy="220" r="4" opacity="0.7"/>
    <circle cx="520" cy="460" r="4" opacity="0.7"/>
    <circle cx="760" cy="460" r="4" opacity="0.7"/>
  </g>
  <g stroke="#7dd3fc" stroke-width="1" opacity="0.35">
    <line x1="440" y1="340" x2="640" y2="340"/>
    <line x1="840" y1="340" x2="640" y2="340"/>
    <line x1="640" y1="140" x2="640" y2="340"/>
    <line x1="640" y1="540" x2="640" y2="340"/>
    <line x1="520" y1="220" x2="640" y2="340"/>
    <line x1="760" y1="220" x2="640" y2="340"/>
    <line x1="520" y1="460" x2="640" y2="340"/>
    <line x1="760" y1="460" x2="640" y2="340"/>
  </g>
  <text x="640" y="645" text-anchor="middle" font-family="Inter, sans-serif" font-weight="600" font-size="34" fill="#ececf1" letter-spacing="6">AGENTIC AI PLATFORM</text>
  <text x="640" y="680" text-anchor="middle" font-family="Inter, sans-serif" font-size="13" fill="#55556b" letter-spacing="4">STREAMING · RAG · TOOL FACTORY</text>
</svg>
