<svg xmlns="http://www.w3.org/2000/svg" viewBox="0 0 1280 720" preserveAspectRatio="xMidYMid slice">
  <defs>
    <linearGradient id="bg" x1="0" y1="0" x2="1" y2="1">
      <stop offset="0" stop-color="#0d0d18"/>
      <stop offset="1" stop-color="#0a0a12"/>
    </linearGradient>
    <radialGradient id="glow" cx="0.5" cy="0.5" r="0.5">
      <stop offset="0" stop-color="#f0abfc" stop-opacity="0.2"/>
      <stop offset="1" stop-color="#f0abfc" stop-opacity="0"/>
    </radialGradient>
  </defs>
  <rect width="1280" height="720" fill="url(#bg)"/>
  <circle cx="640" cy="340" r="380" fill="url(#glow)"/>
  <g transform="translate(520,130)" fill="none" stroke="#f0abfc" stroke-width="1.5">
    <rect x="0" y="0" width="240" height="430" rx="28"/>
    <rect x="10" y="10" width="220" height="410" rx="22" fill="#141420"/>
    <line x1="100" y1="22" x2="140" y2="22" stroke="#55556b" stroke-width="4" stroke-linecap="round"/>
  </g>
  <g font-family="Inter, sans-serif" font-size="13" fill="#f0abfc">
    <text x="540" y="200" font-weight="600" font-size="16" fill="#ececf1">Today</text>
    <text x="540" y="220" fill="#a0a0b0" font-size="11">Push day · 45min</text>
    <rect x="540" y="240" width="200" height="50" rx="8" fill="rgba(240,171,252,0.1)" stroke="#f0abfc" stroke-width="1" opacity="0.6"/>
    <text x="550" y="260" fill="#ececf1" font-size="12" font-weight="500">Bench Press</text>
    <text x="550" y="278" fill="#a0a0b0" font-size="10">4 × 8 · 70 kg</text>
    <rect x="540" y="300" width="200" height="50" rx="8" fill="rgba(240,171,252,0.08)" stroke="#f0abfc" stroke-width="1" opacity="0.4"/>
    <text x="550" y="320" fill="#ececf1" font-size="12" font-weight="500">Overhead Press</text>
    <text x="550" y="338" fill="#a0a0b0" font-size="10">4 × 6 · 45 kg</text>
    <rect x="540" y="360" width="200" height="50" rx="8" fill="rgba(240,171,252,0.06)" stroke="#f0abfc" stroke-width="1" opacity="0.3"/>
    <text x="550" y="380" fill="#ececf1" font-size="12" font-weight="500">Dips</text>
    <text x="550" y="398" fill="#a0a0b0" font-size="10">3 × 12 · BW</text>
  </g>
  <text x="640" y="645" text-anchor="middle" font-family="Inter, sans-serif" font-weight="600" font-size="34" fill="#ececf1" letter-spacing="6">ARYA</text>
  <text x="640" y="680" text-anchor="middle" font-family="Inter, sans-serif" font-size="13" fill="#55556b" letter-spacing="4">MOBILE COACHING · TRACKING</text>
</svg>
