<svg xmlns="http://www.w3.org/2000/svg" viewBox="0 0 400 400" preserveAspectRatio="xMidYMid slice">
  <defs>
    <linearGradient id="sky" x1="0" y1="0" x2="0" y2="1">
      <stop offset="0" stop-color="#1a1828"/>
      <stop offset="1" stop-color="#0d1422"/>
    </linearGradient>
    <radialGradient id="moon" cx="0.75" cy="0.2" r="0.15">
      <stop offset="0" stop-color="#ececf1" stop-opacity="0.4"/>
      <stop offset="1" stop-color="#ececf1" stop-opacity="0"/>
    </radialGradient>
  </defs>
  <rect width="400" height="400" fill="url(#sky)"/>
  <rect width="400" height="400" fill="url(#moon)"/>
  <circle cx="300" cy="80" r="14" fill="#ececf1" opacity="0.9"/>
  <g fill="#ececf1" opacity="0.6">
    <circle cx="80" cy="60" r="1"/>
    <circle cx="150" cy="100" r="1"/>
    <circle cx="220" cy="50" r="1"/>
    <circle cx="60" cy="140" r="1"/>
    <circle cx="340" cy="160" r="1"/>
    <circle cx="180" cy="180" r="1"/>
  </g>
  <path d="M 0 280 L 80 200 L 150 260 L 220 180 L 300 250 L 400 220 L 400 400 L 0 400 Z" fill="#1a1a2a"/>
  <path d="M 0 320 L 100 260 L 180 300 L 280 240 L 400 290 L 400 400 L 0 400 Z" fill="#0d0d18"/>
  <text x="200" y="380" text-anchor="middle" font-family="Inter, sans-serif" font-size="11" fill="#55556b" letter-spacing="3">ELSEWHERE</text>
</svg>
