<svg xmlns="http://www.w3.org/2000/svg" viewBox="0 0 1280 720" preserveAspectRatio="xMidYMid slice">
  <defs>
    <linearGradient id="bg" x1="0" y1="0" x2="1" y2="1">
      <stop offset="0" stop-color="#0d0d18"/>
      <stop offset="1" stop-color="#0a0a12"/>
    </linearGradient>
    <radialGradient id="glow" cx="0.5" cy="0.5" r="0.5">
      <stop offset="0" stop-color="#86efac" stop-opacity="0.18"/>
      <stop offset="1" stop-color="#86efac" stop-opacity="0"/>
    </radialGradient>
  </defs>
  <rect width="1280" height="720" fill="url(#bg)"/>
  <circle cx="640" cy="340" r="400" fill="url(#glow)"/>
  <g transform="translate(180,140)" stroke="#86efac" stroke-width="1" fill="none" opacity="0.7">
    <rect x="0" y="0" width="920" height="60" rx="6"/>
    <rect x="0" y="80" width="220" height="140" rx="6"/>
    <rect x="240" y="80" width="220" height="140" rx="6"/>
    <rect x="480" y="80" width="220" height="140" rx="6"/>
    <rect x="720" y="80" width="200" height="140" rx="6"/>
    <rect x="0" y="240" width="560" height="160" rx="6"/>
    <rect x="580" y="240" width="340" height="160" rx="6"/>
  </g>
  <g font-family="Inter, sans-serif" fill="#86efac">
    <text x="200" y="175" font-size="22" font-weight="600" fill="#ececf1">42</text>
    <text x="200" y="195" font-size="10" fill="#a0a0b0">PROJECTS</text>
    <text x="440" y="175" font-size="22" font-weight="600" fill="#ececf1">128</text>
    <text x="440" y="195" font-size="10" fill="#a0a0b0">INVOICES</text>
    <text x="680" y="175" font-size="22" font-weight="600" fill="#ececf1">87%</text>
    <text x="680" y="195" font-size="10" fill="#a0a0b0">COMPLETION</text>
    <text x="920" y="175" font-size="22" font-weight="600" fill="#ececf1">24</text>
    <text x="920" y="195" font-size="10" fill="#a0a0b0">TICKETS</text>
  </g>
  <polyline fill="none" stroke="#86efac" stroke-width="2" points="200,380 260,350 320,360 380,330 440,320 500,290 560,300 620,270 680,280 740,250"/>
  <text x="640" y="645" text-anchor="middle" font-family="Inter, sans-serif" font-weight="600" font-size="34" fill="#ececf1" letter-spacing="6">PORTAIL</text>
  <text x="640" y="680" text-anchor="middle" font-family="Inter, sans-serif" font-size="13" fill="#55556b" letter-spacing="4">INTERNAL PLATFORM · MODULAR</text>
</svg>
