<svg xmlns="http://www.w3.org/2000/svg" viewBox="0 0 1280 720" preserveAspectRatio="xMidYMid slice">
  <defs>
    <linearGradient id="bg" x1="0" y1="0" x2="1" y2="1">
      <stop offset="0" stop-color="#0d0d18"/>
      <stop offset="1" stop-color="#0a0a12"/>
    </linearGradient>
    <radialGradient id="glow" cx="0.5" cy="0.5" r="0.5">
      <stop offset="0" stop-color="#c4b5fd" stop-opacity="0.18"/>
      <stop offset="1" stop-color="#c4b5fd" stop-opacity="0"/>
    </radialGradient>
  </defs>
  <rect width="1280" height="720" fill="url(#bg)"/>
  <circle cx="640" cy="340" r="400" fill="url(#glow)"/>
  <g font-family="ui-monospace, Menlo, monospace" font-size="16" fill="#a0a0b0">
    <text x="240" y="180" fill="#86efac">GET</text>
    <text x="320" y="180" fill="#ececf1">/api/v1/users/:id</text>
    <text x="900" y="180" fill="#55556b">200 OK</text>
    <line x1="240" y1="200" x2="1040" y2="200" stroke="#2a2a3c" stroke-width="1"/>

    <text x="240" y="240" fill="#7dd3fc">POST</text>
    <text x="320" y="240" fill="#ececf1">/api/v1/organizations</text>
    <text x="900" y="240" fill="#55556b">201 Created</text>
    <line x1="240" y1="260" x2="1040" y2="260" stroke="#2a2a3c" stroke-width="1"/>

    <text x="240" y="300" fill="#f0abfc">PATCH</text>
    <text x="320" y="300" fill="#ececf1">/api/v1/roles/:id</text>
    <text x="900" y="300" fill="#55556b">204</text>
    <line x1="240" y1="320" x2="1040" y2="320" stroke="#2a2a3c" stroke-width="1"/>

    <text x="240" y="360" fill="#86efac">GET</text>
    <text x="320" y="360" fill="#ececf1">/api/v1/contracts?page=2</text>
    <text x="900" y="360" fill="#55556b">Content-Range</text>
    <line x1="240" y1="380" x2="1040" y2="380" stroke="#2a2a3c" stroke-width="1"/>

    <text x="240" y="420" fill="#fda4af">DELETE</text>
    <text x="320" y="420" fill="#ececf1">/api/v1/items/:id</text>
    <text x="900" y="420" fill="#55556b">soft · 204</text>
  </g>
  <g fill="#c4b5fd" opacity="0.8">
    <circle cx="210" cy="175" r="3"/>
    <circle cx="210" cy="235" r="3"/>
    <circle cx="210" cy="295" r="3"/>
    <circle cx="210" cy="355" r="3"/>
    <circle cx="210" cy="415" r="3"/>
  </g>
  <text x="640" y="645" text-anchor="middle" font-family="Inter, sans-serif" font-weight="600" font-size="34" fill="#ececf1" letter-spacing="6">REFERENCE</text>
  <text x="640" y="680" text-anchor="middle" font-family="Inter, sans-serif" font-size="13" fill="#55556b" letter-spacing="4">REST API · 30 MODELS · 38 MODULES</text>
</svg>
